<mxfile host="app.diagrams.net" modified="2024-03-09T13:54:44.085Z" agent="Mozilla/5.0 (Windows NT 10.0; Win64; x64) AppleWebKit/537.36 (KHTML, like Gecko) Chrome/122.0.0.0 Safari/537.36" etag="8ClYHraeQWuWJbJmkn1S" version="24.0.3" type="device">
  <diagram name="Page-1" id="b98fa263-6416-c6ec-5b7d-78bf54ef71d0">
    <mxGraphModel dx="882" dy="504" grid="0" gridSize="10" guides="1" tooltips="1" connect="1" arrows="0" fold="1" page="1" pageScale="1.5" pageWidth="1169" pageHeight="826" background="#000000" math="0" shadow="0">
      <root>
        <mxCell id="0" style=";html=1;" />
        <mxCell id="1" style=";html=1;" parent="0" />
        <mxCell id="303ed1de8c2c98b4-3" value="Skin Disease&amp;nbsp;&lt;br style=&quot;font-size: 14px;&quot;&gt;Detection System" style="rounded=1;shadow=1;strokeWidth=1;fontSize=14;align=center;fillColor=#000000;strokeColor=#FFFFFF;fontColor=#FFFFFF;fontFamily=Times New Roman;whiteSpace=wrap;html=1;labelBackgroundColor=none;" parent="1" vertex="1">
          <mxGeometry x="772" y="318" width="223" height="56" as="geometry" />
        </mxCell>
        <mxCell id="a5ysi49OylQJOefCoNrB-9" style="edgeStyle=orthogonalEdgeStyle;rounded=0;orthogonalLoop=1;jettySize=auto;html=1;exitX=0.25;exitY=1;exitDx=0;exitDy=0;fontColor=#FFFFFF;strokeColor=#FFFFFF;" edge="1" parent="1" source="303ed1de8c2c98b4-5">
          <mxGeometry relative="1" as="geometry">
            <mxPoint x="629" y="533" as="targetPoint" />
          </mxGeometry>
        </mxCell>
        <mxCell id="a5ysi49OylQJOefCoNrB-10" style="edgeStyle=orthogonalEdgeStyle;rounded=0;orthogonalLoop=1;jettySize=auto;html=1;exitX=0.75;exitY=1;exitDx=0;exitDy=0;strokeColor=#FFFFFF;" edge="1" parent="1" source="303ed1de8c2c98b4-5">
          <mxGeometry relative="1" as="geometry">
            <mxPoint x="846" y="531" as="targetPoint" />
          </mxGeometry>
        </mxCell>
        <mxCell id="303ed1de8c2c98b4-5" value="Patient Uploaded image" style="whiteSpace=wrap;html=1;rounded=1;shadow=1;strokeWidth=1;fontSize=14;align=center;fillColor=#000000;strokeColor=#FFFFFF;fontColor=#FFFFFF;labelBackgroundColor=none;" parent="1" vertex="1">
          <mxGeometry x="569" y="415" width="239" height="40" as="geometry" />
        </mxCell>
        <mxCell id="a5ysi49OylQJOefCoNrB-4" value="" style="edgeStyle=orthogonalEdgeStyle;rounded=0;orthogonalLoop=1;jettySize=auto;exitX=0.5;exitY=1;exitDx=0;exitDy=0;fontColor=#FFFFFF;fontFamily=Times New Roman;html=1;fillColor=#000000;strokeColor=#FFFFFF;labelBackgroundColor=none;entryX=0.378;entryY=0.008;entryDx=0;entryDy=0;entryPerimeter=0;" edge="1" parent="1" source="303ed1de8c2c98b4-8" target="a5ysi49OylQJOefCoNrB-8">
          <mxGeometry relative="1" as="geometry">
            <mxPoint x="1061" y="533" as="targetPoint" />
          </mxGeometry>
        </mxCell>
        <mxCell id="303ed1de8c2c98b4-8" value="&lt;font style=&quot;font-size: 14px;&quot;&gt;Skin Images Database&lt;/font&gt;" style="whiteSpace=wrap;html=1;rounded=1;shadow=1;strokeWidth=1;fontSize=16;align=center;fillColor=#000000;strokeColor=#FFFFFF;fontColor=#FFFFFF;labelBackgroundColor=none;" parent="1" vertex="1">
          <mxGeometry x="949" y="415" width="224" height="40" as="geometry" />
        </mxCell>
        <mxCell id="303ed1de8c2c98b4-80" value="" style="edgeStyle=orthogonalEdgeStyle;startSize=6;endFill=0;endSize=6;strokeWidth=1;fontSize=16;rounded=0;endArrow=none;fontColor=#FFFFFF;fontFamily=Times New Roman;html=1;fillColor=#000000;strokeColor=#FFFFFF;labelBackgroundColor=none;" parent="1" edge="1">
          <mxGeometry relative="1" as="geometry">
            <Array as="points">
              <mxPoint x="878" y="390" />
              <mxPoint x="682" y="390" />
            </Array>
            <mxPoint x="878.0000000000002" y="375" as="sourcePoint" />
            <mxPoint x="681.9999999999998" y="415" as="targetPoint" />
          </mxGeometry>
        </mxCell>
        <mxCell id="303ed1de8c2c98b4-83" value="" style="edgeStyle=orthogonalEdgeStyle;startSize=6;endFill=0;endSize=6;strokeWidth=1;fontSize=16;rounded=0;endArrow=none;fontColor=#FFFFFF;fontFamily=Times New Roman;html=1;fillColor=#000000;strokeColor=#FFFFFF;labelBackgroundColor=none;" parent="1" edge="1">
          <mxGeometry relative="1" as="geometry">
            <Array as="points">
              <mxPoint x="878" y="390" />
              <mxPoint x="1053" y="390" />
            </Array>
            <mxPoint x="877.9473684210527" y="375" as="sourcePoint" />
            <mxPoint x="1053" y="415" as="targetPoint" />
          </mxGeometry>
        </mxCell>
        <mxCell id="a5ysi49OylQJOefCoNrB-6" value="" style="edgeStyle=orthogonalEdgeStyle;rounded=0;orthogonalLoop=1;jettySize=auto;exitX=0.5;exitY=1;exitDx=0;exitDy=0;fontColor=#FFFFFF;fontFamily=Times New Roman;html=1;fillColor=#000000;strokeColor=#FFFFFF;labelBackgroundColor=none;entryX=0.5;entryY=0;entryDx=0;entryDy=0;" edge="1" parent="1" source="a5ysi49OylQJOefCoNrB-5" target="a5ysi49OylQJOefCoNrB-7">
          <mxGeometry relative="1" as="geometry">
            <mxPoint x="876.4615384615386" y="680" as="targetPoint" />
          </mxGeometry>
        </mxCell>
        <mxCell id="a5ysi49OylQJOefCoNrB-5" value="Preprocessing and&amp;nbsp;&lt;div style=&quot;font-size: 14px;&quot;&gt;Enhancement&lt;/div&gt;" style="rounded=1;shadow=1;strokeWidth=1;fontSize=14;align=center;fillColor=#000000;strokeColor=#FFFFFF;fontColor=#FFFFFF;fontFamily=Times New Roman;whiteSpace=wrap;html=1;labelBackgroundColor=none;" vertex="1" parent="1">
          <mxGeometry x="563" y="533.5" width="179" height="59.5" as="geometry" />
        </mxCell>
        <mxCell id="a5ysi49OylQJOefCoNrB-7" value="SVM Algorithm&lt;div&gt;(for classification)&lt;/div&gt;" style="rounded=1;shadow=1;strokeWidth=1;fontSize=14;align=center;fillColor=#000000;strokeColor=#FFFFFF;fontColor=#FFFFFF;fontFamily=Times New Roman;whiteSpace=wrap;html=1;labelBackgroundColor=none;" vertex="1" parent="1">
          <mxGeometry x="632" y="683" width="201" height="64" as="geometry" />
        </mxCell>
        <mxCell id="a5ysi49OylQJOefCoNrB-17" style="edgeStyle=orthogonalEdgeStyle;rounded=0;orthogonalLoop=1;jettySize=auto;html=1;exitX=0.5;exitY=1;exitDx=0;exitDy=0;entryX=0.5;entryY=0;entryDx=0;entryDy=0;strokeColor=#FFFFFF;" edge="1" parent="1" source="a5ysi49OylQJOefCoNrB-8" target="a5ysi49OylQJOefCoNrB-15">
          <mxGeometry relative="1" as="geometry">
            <mxPoint x="1042.5964483963817" y="651.1227963096217" as="targetPoint" />
          </mxGeometry>
        </mxCell>
        <mxCell id="a5ysi49OylQJOefCoNrB-8" value="&lt;span style=&quot;font-family: Helvetica; font-size: 14px;&quot;&gt;Skin Image Analysis&lt;/span&gt;" style="rounded=1;shadow=1;strokeWidth=1;fontSize=14;align=center;fillColor=#000000;strokeColor=#FFFFFF;fontColor=#FFFFFF;fontFamily=Times New Roman;whiteSpace=wrap;html=1;labelBackgroundColor=none;" vertex="1" parent="1">
          <mxGeometry x="995" y="541.25" width="174" height="51" as="geometry" />
        </mxCell>
        <mxCell id="a5ysi49OylQJOefCoNrB-13" style="edgeStyle=orthogonalEdgeStyle;rounded=0;orthogonalLoop=1;jettySize=auto;html=1;exitX=0.25;exitY=1;exitDx=0;exitDy=0;entryX=0.5;entryY=0;entryDx=0;entryDy=0;strokeColor=#FFFFFF;" edge="1" parent="1" source="a5ysi49OylQJOefCoNrB-11" target="a5ysi49OylQJOefCoNrB-7">
          <mxGeometry relative="1" as="geometry">
            <mxPoint x="750.6666452508225" y="675.6842105263158" as="targetPoint" />
          </mxGeometry>
        </mxCell>
        <mxCell id="a5ysi49OylQJOefCoNrB-16" style="edgeStyle=orthogonalEdgeStyle;rounded=0;orthogonalLoop=1;jettySize=auto;html=1;exitX=0.75;exitY=1;exitDx=0;exitDy=0;entryX=0.5;entryY=0;entryDx=0;entryDy=0;strokeColor=#FFFFFF;" edge="1" parent="1" source="a5ysi49OylQJOefCoNrB-11" target="a5ysi49OylQJOefCoNrB-15">
          <mxGeometry relative="1" as="geometry" />
        </mxCell>
        <mxCell id="a5ysi49OylQJOefCoNrB-11" value="Feature extraction and Pattern Recognition" style="rounded=1;shadow=1;strokeWidth=1;fontSize=14;align=center;fillColor=#000000;strokeColor=#FFFFFF;fontColor=#FFFFFF;fontFamily=Times New Roman;whiteSpace=wrap;html=1;labelBackgroundColor=none;" vertex="1" parent="1">
          <mxGeometry x="762" y="533" width="202" height="59.5" as="geometry" />
        </mxCell>
        <mxCell id="a5ysi49OylQJOefCoNrB-15" value="Naive Bayes Algorithm&lt;div&gt;(for classification)&lt;/div&gt;" style="rounded=1;shadow=1;strokeWidth=1;fontSize=14;align=center;fillColor=#000000;strokeColor=#FFFFFF;fontColor=#FFFFFF;fontFamily=Times New Roman;whiteSpace=wrap;html=1;labelBackgroundColor=none;" vertex="1" parent="1">
          <mxGeometry x="938" y="683" width="217" height="63" as="geometry" />
        </mxCell>
      </root>
    </mxGraphModel>
  </diagram>
</mxfile>
